<?xml version="1.0" standalone="no"?>
<!DOCTYPE svg PUBLIC "-//W3C//DTD SVG 20010904//EN"
 "http://www.w3.org/TR/2001/REC-SVG-20010904/DTD/svg10.dtd">
<svg version="1.0" xmlns="http://www.w3.org/2000/svg"
 width="700.000000pt" height="700.000000pt" viewBox="0 0 700.000000 700.000000"
 preserveAspectRatio="xMidYMid meet">
<metadata>
Created by potrace 1.11, written by Peter Selinger 2001-2013
</metadata>
<g transform="translate(0.000000,700.000000) scale(0.100000,-0.100000)"
fill="#000000" stroke="none">
<path d="M0 3500 l0 -3500 3500 0 3500 0 0 3500 0 3500 -3500 0 -3500 0 0
-3500z m5192 2701 c60 -29 120 -89 150 -149 l23 -47 3 -2494 2 -2493 -26 -59
c-31 -68 -93 -131 -162 -162 -73 -34 -189 -31 -264 6 -70 35 -131 101 -158
174 -20 54 -20 59 -18 2541 l3 2487 24 45 c42 81 115 143 201 171 46 15 171 4
222 -20z m-3113 -475 c53 -28 121 -96 149 -151 l27 -50 0 -1945 0 -1945 -23
-47 c-58 -118 -169 -182 -302 -176 -119 5 -217 67 -272 170 l-23 43 -3 1934
c-1 1297 1 1946 8 1971 23 85 119 183 204 210 49 15 196 6 235 -14z m2089
-456 c71 -36 115 -82 151 -160 l26 -55 0 -1605 0 -1605 -26 -55 c-115 -242
-440 -254 -568 -20 l-36 65 0 1615 0 1615 21 46 c32 69 91 128 159 161 50 23
73 28 136 28 64 0 85 -5 137 -30z m-3120 -660 c68 -29 144 -111 169 -182 17
-49 18 -100 18 -743 0 -788 4 -751 -86 -849 -67 -74 -129 -100 -234 -101 -65
0 -89 5 -130 24 -63 32 -124 93 -156 156 l-24 50 -3 699 c-3 768 -3 760 57
843 88 122 247 164 389 103z m2061 -4 c67 -34 118 -87 150 -155 l26 -56 0
-1100 0 -1100 -28 -56 c-32 -67 -100 -132 -165 -162 -71 -32 -180 -30 -252 4
-70 33 -126 89 -159 159 l-26 55 0 1105 0 1105 34 63 c48 88 117 141 216 166
47 12 154 -3 204 -28z m3109 -635 c65 -33 118 -87 149 -149 l28 -57 0 -965 0
-965 -22 -47 c-27 -60 -95 -127 -158 -159 -41 -20 -65 -24 -135 -24 -73 0 -92
4 -136 27 -67 35 -138 115 -161 181 -17 49 -18 109 -18 997 l0 945 33 67 c38
77 92 128 166 158 69 27 192 23 254 -9z"/>
</g>
</svg>
