<?xml version="1.0" encoding="utf-8"?>
<!-- Generator: Adobe Illustrator 24.1.0, SVG Export Plug-In . SVG Version: 6.00 Build 0)  -->
<svg version="1.1" id="Layer_1" xmlns="http://www.w3.org/2000/svg" xmlns:xlink="http://www.w3.org/1999/xlink" x="0px" y="0px"
	 viewBox="0 0 32 32" style="enable-background:new 0 0 32 32;" xml:space="preserve">
<style type="text/css">
	.st0{fill:#02477B;}
	.st1{fill:#FFFFFF;}
</style>
<rect class="st0" width="32" height="32"/>
<g>
	<path class="st1" d="M5.65,18.06v-5.82c0-0.8-0.65-1.45-1.46-1.45c-0.8,0-1.45,0.65-1.45,1.45v5.82c0,0.8,0.65,1.46,1.45,1.46
		C5,19.52,5.65,18.86,5.65,18.06"/>
	<path class="st1" d="M10.34,24.12V7.15c0-0.8-0.65-1.46-1.45-1.46c-0.8,0-1.46,0.65-1.46,1.46v16.97c0,0.8,0.65,1.45,1.46,1.45
		C9.69,25.58,10.34,24.93,10.34,24.12"/>
	<path class="st1" d="M15.03,21.62v-9.38c0-0.8-0.65-1.45-1.46-1.45c-0.8,0-1.45,0.65-1.45,1.45v9.38c0,0.8,0.65,1.46,1.45,1.46
		C14.38,23.07,15.03,22.42,15.03,21.62"/>
	<path class="st1" d="M27.8,13.7c-0.8,0-1.45,0.65-1.45,1.45v8.08c0,0.8,0.65,1.46,1.45,1.46c0.8,0,1.46-0.65,1.46-1.46v-8.08
		C29.26,14.35,28.6,13.7,27.8,13.7"/>
	<path class="st1" d="M23.11,3.51c-0.8,0-1.45,0.65-1.45,1.45v22.07c0,0.8,0.65,1.45,1.45,1.45c0.8,0,1.46-0.65,1.46-1.45V4.97
		C24.57,4.16,23.92,3.51,23.11,3.51"/>
	<path class="st1" d="M18.42,24.69c0.8,0,1.45-0.65,1.45-1.46V9.21c0-0.8-0.65-1.46-1.45-1.46c-0.8,0-1.46,0.65-1.46,1.46v14.02
		C16.97,24.04,17.62,24.69,18.42,24.69"/>
</g>
</svg>
