<?xml version="1.0" encoding="utf-8"?>
<!-- Generator: Adobe Illustrator 24.1.0, SVG Export Plug-In . SVG Version: 6.00 Build 0)  -->
<svg version="1.1" id="Layer_1" xmlns="http://www.w3.org/2000/svg" xmlns:xlink="http://www.w3.org/1999/xlink" x="0px" y="0px"
	 viewBox="0 0 64 24" style="enable-background:new 0 0 64 24;" xml:space="preserve">
<style type="text/css">
	.st0{fill:#02477B;}
	.st1{fill:#6B6765;}
</style>
<g>
	<g>
		<path class="st0" d="M2.8,13.98V8.39c0-0.77-0.63-1.4-1.4-1.4C0.63,6.99,0,7.62,0,8.39v5.59c0,0.77,0.63,1.4,1.4,1.4
			C2.17,15.38,2.8,14.75,2.8,13.98"/>
		<path class="st0" d="M7.3,19.81V3.5c0-0.77-0.63-1.4-1.4-1.4c-0.77,0-1.4,0.63-1.4,1.4v16.31c0,0.77,0.63,1.4,1.4,1.4
			C6.68,21.2,7.3,20.58,7.3,19.81"/>
		<path class="st0" d="M11.81,17.4V8.39c0-0.77-0.63-1.4-1.4-1.4c-0.77,0-1.4,0.63-1.4,1.4v9.01c0,0.77,0.63,1.4,1.4,1.4
			C11.18,18.8,11.81,18.17,11.81,17.4"/>
		<path class="st0" d="M24.08,9.79c-0.77,0-1.4,0.63-1.4,1.4v7.77c0,0.77,0.63,1.4,1.4,1.4c0.77,0,1.4-0.63,1.4-1.4v-7.77
			C25.48,10.41,24.85,9.79,24.08,9.79"/>
		<path class="st0" d="M19.57,0c-0.77,0-1.4,0.63-1.4,1.4v21.2c0,0.77,0.63,1.4,1.4,1.4c0.77,0,1.4-0.63,1.4-1.4V1.4
			C20.97,0.63,20.34,0,19.57,0"/>
		<path class="st0" d="M15.07,20.35c0.77,0,1.4-0.63,1.4-1.4V5.48c0-0.77-0.63-1.4-1.4-1.4c-0.77,0-1.4,0.63-1.4,1.4v13.48
			C13.67,19.72,14.3,20.35,15.07,20.35"/>
	</g>
	<g>
		<path class="st1" d="M44,15.88h-3.23l-0.85-2.53h-4.3l-0.85,2.53h-3.23l3.96-12.24h4.52L44,15.88z M36.62,10.36h2.32l-1.16-3.24
			L36.62,10.36z"/>
		<polygon class="st1" points="48.11,12.87 53.55,12.87 53.55,15.88 44.91,15.88 44.91,3.64 48.11,3.64 		"/>
		<path class="st1" d="M58.56,12.28c0,0.4,0.22,0.59,0.66,0.59H64v3.01h-4.77c-2.58,0-3.87-1.2-3.87-3.6V7.24
			c0-2.4,1.29-3.6,3.87-3.6H64v3h-4.77c-0.44,0-0.66,0.2-0.66,0.6V12.28z"/>
		<path class="st0" d="M33.74,20.36h-0.57l-0.15-0.44h-0.76l-0.15,0.44h-0.57l0.7-2.15h0.79L33.74,20.36z M32.45,19.39h0.41
			l-0.2-0.57L32.45,19.39z"/>
		<path class="st0" d="M35.34,18.21v1.52c0,0.07,0.04,0.1,0.12,0.1h0.32c0.08,0,0.12-0.03,0.12-0.1v-1.52h0.56v1.52
			c0,0.42-0.23,0.63-0.68,0.63h-0.32c-0.45,0-0.68-0.21-0.68-0.63v-1.52H35.34z"/>
		<path class="st0" d="M38.64,18.21c0.45,0,0.68,0.21,0.68,0.63v0.89c0,0.42-0.23,0.63-0.68,0.63h-1v-2.15H38.64z M38.76,18.84
			c0-0.07-0.04-0.11-0.12-0.11H38.2v1.1h0.44c0.08,0,0.12-0.03,0.12-0.1V18.84z"/>
		<rect x="40.51" y="18.21" class="st0" width="0.56" height="2.15"/>
		<path class="st0" d="M44.02,19.73c0,0.42-0.23,0.63-0.68,0.63h-0.4c-0.45,0-0.68-0.21-0.68-0.63v-0.89c0-0.42,0.23-0.63,0.68-0.63
			h0.4c0.45,0,0.68,0.21,0.68,0.63V19.73z M42.82,19.73c0,0.07,0.04,0.1,0.12,0.1h0.4c0.08,0,0.12-0.03,0.12-0.1v-0.89
			c0-0.07-0.04-0.11-0.12-0.11h-0.4c-0.08,0-0.12,0.04-0.12,0.11V19.73z"/>
		<rect x="45.26" y="19.7" class="st0" width="0.64" height="0.64"/>
		<polygon class="st0" points="47.7,19.83 48.66,19.83 48.66,20.36 47.14,20.36 47.14,18.21 47.7,18.21 		"/>
		<path class="st0" d="M50.41,18.21v1.52c0,0.07,0.04,0.1,0.12,0.1h0.32c0.08,0,0.12-0.03,0.12-0.1v-1.52h0.56v1.52
			c0,0.42-0.23,0.63-0.68,0.63h-0.32c-0.45,0-0.68-0.21-0.68-0.63v-1.52H50.41z"/>
		<polygon class="st0" points="54.39,18.21 54.39,18.71 53.44,19.83 54.39,19.83 54.39,20.36 52.71,20.36 52.71,19.86 53.67,18.73 
			52.71,18.73 52.71,18.21 		"/>
		<rect x="55.63" y="19.7" class="st0" width="0.64" height="0.64"/>
		<path class="st0" d="M58.07,19.73c0,0.07,0.04,0.1,0.12,0.1h0.84v0.53h-0.84c-0.45,0-0.68-0.21-0.68-0.63v-0.89
			c0-0.42,0.23-0.63,0.68-0.63h0.84v0.53h-0.84c-0.08,0-0.12,0.04-0.12,0.11V19.73z"/>
		<rect x="60.22" y="18.21" class="st0" width="0.56" height="2.15"/>
		<path class="st0" d="M64,20.36h-0.57l-0.15-0.44h-0.76l-0.15,0.44h-0.57l0.7-2.15h0.79L64,20.36z M62.7,19.39h0.41l-0.2-0.57
			L62.7,19.39z"/>
	</g>
</g>
</svg>
